<svg width="304" height="84" viewBox="0 0 304 84" fill="none" xmlns="http://www.w3.org/2000/svg">
<path d="M3.712 58V13.2H14.72V32.784L32.832 13.2H46.144L25.408 34.256L47.296 58H32.704L14.72 37.456V58H3.712ZM63.4695 58.64C60.0135 58.64 56.8988 57.872 54.1255 56.336C51.3522 54.7573 49.1548 52.6453 47.5335 50C45.9122 47.3547 45.1015 44.3893 45.1015 41.104C45.1015 37.8187 45.9122 34.8533 47.5335 32.208C49.1548 29.52 51.3522 27.408 54.1255 25.872C56.8988 24.2933 60.0135 23.504 63.4695 23.504C66.9255 23.504 70.0402 24.2933 72.8135 25.872C75.5868 27.408 77.7842 29.52 79.4055 32.208C81.0268 34.8533 81.8375 37.8187 81.8375 41.104C81.8375 44.3893 81.0268 47.3547 79.4055 50C77.7842 52.6453 75.5868 54.7573 72.8135 56.336C70.0402 57.872 66.9255 58.64 63.4695 58.64ZM63.4695 49.68C65.0482 49.68 66.4562 49.296 67.6935 48.528C68.9308 47.76 69.9122 46.736 70.6375 45.456C71.3628 44.1333 71.7255 42.6827 71.7255 41.104C71.7255 39.4827 71.3628 38.032 70.6375 36.752C69.9122 35.4293 68.9095 34.384 67.6295 33.616C66.3922 32.848 65.0055 32.464 63.4695 32.464C61.9335 32.464 60.5255 32.848 59.2455 33.616C58.0082 34.384 57.0268 35.4293 56.3015 36.752C55.5762 38.032 55.2135 39.4827 55.2135 41.104C55.2135 42.6827 55.5762 44.1333 56.3015 45.456C57.0268 46.736 58.0082 47.76 59.2455 48.528C60.5255 49.296 61.9335 49.68 63.4695 49.68ZM86.7 71.056V24.144H96.94V26.64C99.628 24.6773 102.657 23.696 106.028 23.696C109.271 23.696 112.193 24.4853 114.796 26.064C117.399 27.6 119.468 29.6907 121.004 32.336C122.54 34.9387 123.308 37.8613 123.308 41.104C123.308 44.3467 122.519 47.2907 120.94 49.936C119.404 52.5387 117.292 54.608 114.604 56.144C111.959 57.68 108.993 58.448 105.708 58.448C104.129 58.448 102.615 58.256 101.164 57.872C99.7133 57.488 98.348 56.9333 97.068 56.208V71.056H86.7ZM104.236 49.68C105.943 49.68 107.457 49.3173 108.78 48.592C110.103 47.824 111.148 46.8 111.916 45.52C112.727 44.1973 113.132 42.7253 113.132 41.104C113.132 39.4827 112.727 38.032 111.916 36.752C111.148 35.4293 110.081 34.4053 108.716 33.68C107.393 32.912 105.9 32.528 104.236 32.528C102.785 32.528 101.463 32.7627 100.268 33.232C99.0733 33.6587 98.0067 34.32 97.068 35.216V47.056C97.964 47.8667 99.0307 48.5067 100.268 48.976C101.505 49.4453 102.828 49.68 104.236 49.68ZM128.2 58V24.144H138.568V58H128.2ZM133.384 21.008C131.805 21.008 130.461 20.4533 129.352 19.344C128.243 18.2347 127.688 16.8907 127.688 15.312C127.688 13.7333 128.243 12.3893 129.352 11.28C130.461 10.1707 131.805 9.616 133.384 9.616C134.963 9.616 136.307 10.1707 137.416 11.28C138.525 12.3893 139.08 13.7333 139.08 15.312C139.08 16.8907 138.525 18.2347 137.416 19.344C136.307 20.4533 134.963 21.008 133.384 21.008ZM144.95 58V13.2L155.318 11.6V58H144.95ZM172.516 58.576C170.127 58.576 167.993 58.128 166.116 57.232C164.281 56.336 162.831 55.0987 161.764 53.52C160.74 51.9413 160.228 50.128 160.228 48.08C160.228 44.8373 161.444 42.3413 163.876 40.592C166.351 38.8 169.785 37.904 174.18 37.904C176.825 37.904 179.385 38.224 181.86 38.864V37.2C181.86 35.4933 181.305 34.2347 180.196 33.424C179.129 32.5707 177.529 32.144 175.396 32.144C174.073 32.144 172.58 32.3573 170.916 32.784C169.295 33.2107 167.375 33.8933 165.156 34.832L161.444 27.216C164.217 25.9787 166.884 25.0613 169.444 24.464C172.047 23.824 174.649 23.504 177.252 23.504C181.945 23.504 185.593 24.6347 188.196 26.896C190.799 29.1147 192.1 32.2507 192.1 36.304V58H181.86V55.952C180.495 56.8907 179.044 57.5733 177.508 58C176.015 58.384 174.351 58.576 172.516 58.576ZM170.084 47.888C170.084 48.9547 170.553 49.7867 171.492 50.384C172.431 50.9813 173.732 51.28 175.396 51.28C176.633 51.28 177.785 51.152 178.852 50.896C179.961 50.64 180.964 50.2347 181.86 49.68V45.328C180.879 45.072 179.876 44.88 178.852 44.752C177.828 44.624 176.783 44.56 175.716 44.56C173.924 44.56 172.537 44.8587 171.556 45.456C170.575 46.0107 170.084 46.8213 170.084 47.888Z" fill="#513AA6"/>
<path d="M202.088 77.32C200.381 77.32 198.792 77.032 197.32 76.456C195.869 75.8587 194.6 75.0373 193.512 73.992C192.424 72.9467 191.571 71.7307 190.952 70.344C190.355 68.936 190.056 67.4213 190.056 65.8C190.056 64.1573 190.355 62.6427 190.952 61.256C191.571 59.848 192.424 58.6213 193.512 57.576C194.621 56.5307 195.901 55.72 197.352 55.144C198.824 54.5467 200.403 54.248 202.088 54.248C203.325 54.248 204.541 54.4293 205.736 54.792C206.931 55.1547 208.029 55.6667 209.032 56.328C210.056 56.968 210.909 57.736 211.592 58.632L207.88 62.28C207.091 61.2773 206.205 60.5307 205.224 60.04C204.264 59.5493 203.219 59.304 202.088 59.304C201.192 59.304 200.349 59.4747 199.56 59.816C198.792 60.136 198.12 60.584 197.544 61.16C196.968 61.736 196.52 62.4187 196.2 63.208C195.88 63.9973 195.72 64.8613 195.72 65.8C195.72 66.7173 195.88 67.5707 196.2 68.36C196.541 69.128 197 69.8107 197.576 70.408C198.173 70.984 198.867 71.432 199.656 71.752C200.467 72.072 201.341 72.232 202.28 72.232C203.368 72.232 204.371 71.9973 205.288 71.528C206.227 71.0587 207.069 70.3653 207.816 69.448L211.432 73C210.749 73.8747 209.907 74.6427 208.904 75.304C207.901 75.944 206.813 76.4453 205.64 76.808C204.467 77.1493 203.283 77.32 202.088 77.32ZM221.454 77.32C219.726 77.32 218.168 76.936 216.782 76.168C215.395 75.3787 214.296 74.3227 213.486 73C212.675 71.6773 212.27 70.1947 212.27 68.552C212.27 66.9093 212.675 65.4267 213.486 64.104C214.296 62.76 215.395 61.704 216.782 60.936C218.168 60.1467 219.726 59.752 221.454 59.752C223.182 59.752 224.739 60.1467 226.126 60.936C227.512 61.704 228.611 62.76 229.422 64.104C230.232 65.4267 230.638 66.9093 230.638 68.552C230.638 70.1947 230.232 71.6773 229.422 73C228.611 74.3227 227.512 75.3787 226.126 76.168C224.739 76.936 223.182 77.32 221.454 77.32ZM221.454 72.84C222.243 72.84 222.947 72.648 223.566 72.264C224.184 71.88 224.675 71.368 225.038 70.728C225.4 70.0667 225.582 69.3413 225.582 68.552C225.582 67.7413 225.4 67.016 225.038 66.376C224.675 65.7147 224.174 65.192 223.534 64.808C222.915 64.424 222.222 64.232 221.454 64.232C220.686 64.232 219.982 64.424 219.342 64.808C218.723 65.192 218.232 65.7147 217.87 66.376C217.507 67.016 217.326 67.7413 217.326 68.552C217.326 69.3413 217.507 70.0667 217.87 70.728C218.232 71.368 218.723 71.88 219.342 72.264C219.982 72.648 220.686 72.84 221.454 72.84ZM240.941 77.224C239.341 77.224 237.879 76.84 236.557 76.072C235.255 75.2827 234.221 74.2373 233.453 72.936C232.685 71.6133 232.301 70.1413 232.301 68.52C232.301 66.8987 232.685 65.4373 233.453 64.136C234.242 62.8133 235.298 61.768 236.621 61C237.965 60.232 239.458 59.848 241.101 59.848C241.89 59.848 242.647 59.944 243.373 60.136C244.098 60.328 244.781 60.6053 245.421 60.968V54.6L250.605 53.8V77H245.485V75.752C244.141 76.7333 242.626 77.224 240.941 77.224ZM241.837 72.808C242.562 72.808 243.223 72.7013 243.821 72.488C244.418 72.2533 244.951 71.912 245.421 71.464V65.544C244.973 65.1173 244.439 64.7973 243.821 64.584C243.202 64.3493 242.541 64.232 241.837 64.232C241.005 64.232 240.247 64.424 239.565 64.808C238.903 65.1707 238.37 65.6827 237.965 66.344C237.581 66.984 237.389 67.7093 237.389 68.52C237.389 69.3307 237.581 70.0667 237.965 70.728C238.37 71.368 238.903 71.88 239.565 72.264C240.247 72.6267 241.005 72.808 241.837 72.808ZM262.267 77.32C260.539 77.32 258.971 76.936 257.563 76.168C256.176 75.3787 255.077 74.3227 254.267 73C253.456 71.6773 253.051 70.1947 253.051 68.552C253.051 66.9093 253.435 65.4267 254.203 64.104C254.992 62.7813 256.059 61.736 257.403 60.968C258.747 60.1787 260.24 59.784 261.883 59.784C263.547 59.784 265.019 60.1893 266.299 61C267.579 61.7893 268.581 62.8773 269.307 64.264C270.053 65.6507 270.427 67.24 270.427 69.032V70.312H258.363C258.597 70.8453 258.907 71.3147 259.291 71.72C259.696 72.1253 260.176 72.4453 260.731 72.68C261.285 72.8933 261.883 73 262.523 73C263.227 73 263.867 72.8933 264.443 72.68C265.019 72.4453 265.509 72.1253 265.915 71.72L269.339 74.76C268.272 75.656 267.173 76.3067 266.043 76.712C264.933 77.1173 263.675 77.32 262.267 77.32ZM258.267 66.696H265.339C265.168 66.1413 264.901 65.672 264.539 65.288C264.197 64.8827 263.792 64.5733 263.323 64.36C262.853 64.1253 262.341 64.008 261.787 64.008C261.211 64.008 260.688 64.1147 260.219 64.328C259.749 64.5413 259.344 64.8507 259.003 65.256C258.683 65.64 258.437 66.12 258.267 66.696ZM272.85 77V60.072H278.034V61.768C278.589 61.0853 279.239 60.5733 279.986 60.232C280.733 59.8693 281.565 59.688 282.482 59.688C283.399 59.7093 284.05 59.848 284.434 60.104V64.616C284.093 64.4453 283.709 64.3173 283.282 64.232C282.855 64.1467 282.418 64.104 281.97 64.104C281.159 64.104 280.402 64.296 279.698 64.68C279.015 65.0427 278.461 65.5653 278.034 66.248V77H272.85ZM293.694 77.32C292.094 77.32 290.612 77.1387 289.246 76.776C287.881 76.392 286.697 75.8373 285.694 75.112L288.158 71.624C289.225 72.264 290.196 72.7333 291.07 73.032C291.945 73.3093 292.809 73.448 293.662 73.448C294.516 73.448 295.188 73.3307 295.678 73.096C296.19 72.84 296.446 72.5093 296.446 72.104C296.446 71.784 296.308 71.528 296.03 71.336C295.753 71.1227 295.316 70.9733 294.718 70.888L291.358 70.376C289.673 70.12 288.382 69.5653 287.486 68.712C286.612 67.8373 286.174 66.7067 286.174 65.32C286.174 64.168 286.462 63.1867 287.038 62.376C287.636 61.544 288.478 60.9147 289.566 60.488C290.654 60.04 291.956 59.816 293.47 59.816C294.708 59.816 295.934 59.9867 297.15 60.328C298.366 60.6693 299.497 61.1813 300.542 61.864L298.078 65.192C297.161 64.6587 296.286 64.2747 295.454 64.04C294.622 63.784 293.79 63.656 292.958 63.656C292.297 63.656 291.764 63.7733 291.358 64.008C290.953 64.2213 290.75 64.5093 290.75 64.872C290.75 65.2133 290.9 65.4907 291.198 65.704C291.497 65.896 292.009 66.0453 292.734 66.152L296.094 66.664C297.758 66.8987 299.038 67.4533 299.934 68.328C300.852 69.1813 301.31 70.2693 301.31 71.592C301.31 72.7013 300.98 73.6827 300.318 74.536C299.657 75.3893 298.75 76.072 297.598 76.584C296.468 77.0747 295.166 77.32 293.694 77.32Z" fill="#263147"/>
</svg>
