<svg width="313" height="96" viewBox="0 0 313 96" fill="none" xmlns="http://www.w3.org/2000/svg">
<path d="M211.088 89.32C209.381 89.32 207.792 89.032 206.32 88.456C204.869 87.8587 203.6 87.0373 202.512 85.992C201.424 84.9467 200.571 83.7307 199.952 82.344C199.355 80.936 199.056 79.4213 199.056 77.8C199.056 76.1573 199.355 74.6427 199.952 73.256C200.571 71.848 201.424 70.6213 202.512 69.576C203.621 68.5307 204.901 67.72 206.352 67.144C207.824 66.5467 209.403 66.248 211.088 66.248C212.325 66.248 213.541 66.4293 214.736 66.792C215.931 67.1547 217.029 67.6667 218.032 68.328C219.056 68.968 219.909 69.736 220.592 70.632L216.88 74.28C216.091 73.2773 215.205 72.5307 214.224 72.04C213.264 71.5493 212.219 71.304 211.088 71.304C210.192 71.304 209.349 71.4747 208.56 71.816C207.792 72.136 207.12 72.584 206.544 73.16C205.968 73.736 205.52 74.4187 205.2 75.208C204.88 75.9973 204.72 76.8613 204.72 77.8C204.72 78.7173 204.88 79.5707 205.2 80.36C205.541 81.128 206 81.8107 206.576 82.408C207.173 82.984 207.867 83.432 208.656 83.752C209.467 84.072 210.341 84.232 211.28 84.232C212.368 84.232 213.371 83.9973 214.288 83.528C215.227 83.0587 216.069 82.3653 216.816 81.448L220.432 85C219.749 85.8747 218.907 86.6427 217.904 87.304C216.901 87.944 215.813 88.4453 214.64 88.808C213.467 89.1493 212.283 89.32 211.088 89.32ZM230.454 89.32C228.726 89.32 227.168 88.936 225.782 88.168C224.395 87.3787 223.296 86.3227 222.486 85C221.675 83.6773 221.27 82.1947 221.27 80.552C221.27 78.9093 221.675 77.4267 222.486 76.104C223.296 74.76 224.395 73.704 225.782 72.936C227.168 72.1467 228.726 71.752 230.454 71.752C232.182 71.752 233.739 72.1467 235.126 72.936C236.512 73.704 237.611 74.76 238.422 76.104C239.232 77.4267 239.638 78.9093 239.638 80.552C239.638 82.1947 239.232 83.6773 238.422 85C237.611 86.3227 236.512 87.3787 235.126 88.168C233.739 88.936 232.182 89.32 230.454 89.32ZM230.454 84.84C231.243 84.84 231.947 84.648 232.566 84.264C233.184 83.88 233.675 83.368 234.038 82.728C234.4 82.0667 234.582 81.3413 234.582 80.552C234.582 79.7413 234.4 79.016 234.038 78.376C233.675 77.7147 233.174 77.192 232.534 76.808C231.915 76.424 231.222 76.232 230.454 76.232C229.686 76.232 228.982 76.424 228.342 76.808C227.723 77.192 227.232 77.7147 226.87 78.376C226.507 79.016 226.326 79.7413 226.326 80.552C226.326 81.3413 226.507 82.0667 226.87 82.728C227.232 83.368 227.723 83.88 228.342 84.264C228.982 84.648 229.686 84.84 230.454 84.84ZM249.941 89.224C248.341 89.224 246.879 88.84 245.557 88.072C244.255 87.2827 243.221 86.2373 242.453 84.936C241.685 83.6133 241.301 82.1413 241.301 80.52C241.301 78.8987 241.685 77.4373 242.453 76.136C243.242 74.8133 244.298 73.768 245.621 73C246.965 72.232 248.458 71.848 250.101 71.848C250.89 71.848 251.647 71.944 252.373 72.136C253.098 72.328 253.781 72.6053 254.421 72.968V66.6L259.605 65.8V89H254.485V87.752C253.141 88.7333 251.626 89.224 249.941 89.224ZM250.837 84.808C251.562 84.808 252.223 84.7013 252.821 84.488C253.418 84.2533 253.951 83.912 254.421 83.464V77.544C253.973 77.1173 253.439 76.7973 252.821 76.584C252.202 76.3493 251.541 76.232 250.837 76.232C250.005 76.232 249.247 76.424 248.565 76.808C247.903 77.1707 247.37 77.6827 246.965 78.344C246.581 78.984 246.389 79.7093 246.389 80.52C246.389 81.3307 246.581 82.0667 246.965 82.728C247.37 83.368 247.903 83.88 248.565 84.264C249.247 84.6267 250.005 84.808 250.837 84.808ZM271.267 89.32C269.539 89.32 267.971 88.936 266.563 88.168C265.176 87.3787 264.077 86.3227 263.267 85C262.456 83.6773 262.051 82.1947 262.051 80.552C262.051 78.9093 262.435 77.4267 263.203 76.104C263.992 74.7813 265.059 73.736 266.403 72.968C267.747 72.1787 269.24 71.784 270.883 71.784C272.547 71.784 274.019 72.1893 275.299 73C276.579 73.7893 277.581 74.8773 278.307 76.264C279.053 77.6507 279.427 79.24 279.427 81.032V82.312H267.363C267.597 82.8453 267.907 83.3147 268.291 83.72C268.696 84.1253 269.176 84.4453 269.731 84.68C270.285 84.8933 270.883 85 271.523 85C272.227 85 272.867 84.8933 273.443 84.68C274.019 84.4453 274.509 84.1253 274.915 83.72L278.339 86.76C277.272 87.656 276.173 88.3067 275.043 88.712C273.933 89.1173 272.675 89.32 271.267 89.32ZM267.267 78.696H274.339C274.168 78.1413 273.901 77.672 273.539 77.288C273.197 76.8827 272.792 76.5733 272.323 76.36C271.853 76.1253 271.341 76.008 270.787 76.008C270.211 76.008 269.688 76.1147 269.219 76.328C268.749 76.5413 268.344 76.8507 268.003 77.256C267.683 77.64 267.437 78.12 267.267 78.696ZM281.85 89V72.072H287.034V73.768C287.589 73.0853 288.239 72.5733 288.986 72.232C289.733 71.8693 290.565 71.688 291.482 71.688C292.399 71.7093 293.05 71.848 293.434 72.104V76.616C293.093 76.4453 292.709 76.3173 292.282 76.232C291.855 76.1467 291.418 76.104 290.97 76.104C290.159 76.104 289.402 76.296 288.698 76.68C288.015 77.0427 287.461 77.5653 287.034 78.248V89H281.85ZM302.694 89.32C301.094 89.32 299.612 89.1387 298.246 88.776C296.881 88.392 295.697 87.8373 294.694 87.112L297.158 83.624C298.225 84.264 299.196 84.7333 300.07 85.032C300.945 85.3093 301.809 85.448 302.662 85.448C303.516 85.448 304.188 85.3307 304.678 85.096C305.19 84.84 305.446 84.5093 305.446 84.104C305.446 83.784 305.308 83.528 305.03 83.336C304.753 83.1227 304.316 82.9733 303.718 82.888L300.358 82.376C298.673 82.12 297.382 81.5653 296.486 80.712C295.612 79.8373 295.174 78.7067 295.174 77.32C295.174 76.168 295.462 75.1867 296.038 74.376C296.636 73.544 297.478 72.9147 298.566 72.488C299.654 72.04 300.956 71.816 302.47 71.816C303.708 71.816 304.934 71.9867 306.15 72.328C307.366 72.6693 308.497 73.1813 309.542 73.864L307.078 77.192C306.161 76.6587 305.286 76.2747 304.454 76.04C303.622 75.784 302.79 75.656 301.958 75.656C301.297 75.656 300.764 75.7733 300.358 76.008C299.953 76.2213 299.75 76.5093 299.75 76.872C299.75 77.2133 299.9 77.4907 300.198 77.704C300.497 77.896 301.009 78.0453 301.734 78.152L305.094 78.664C306.758 78.8987 308.038 79.4533 308.934 80.328C309.852 81.1813 310.31 82.2693 310.31 83.592C310.31 84.7013 309.98 85.6827 309.318 86.536C308.657 87.3893 307.75 88.072 306.598 88.584C305.468 89.0747 304.166 89.32 302.694 89.32Z" fill="#263147"/>
<path d="M3.712 58V13.2H14.72V32.784L32.832 13.2H46.144L25.408 34.256L47.296 58H32.704L14.72 37.456V58H3.712ZM63.4695 58.64C60.0135 58.64 56.8988 57.872 54.1255 56.336C51.3522 54.7573 49.1548 52.6453 47.5335 50C45.9122 47.3547 45.1015 44.3893 45.1015 41.104C45.1015 37.8187 45.9122 34.8533 47.5335 32.208C49.1548 29.52 51.3522 27.408 54.1255 25.872C56.8988 24.2933 60.0135 23.504 63.4695 23.504C66.9255 23.504 70.0402 24.2933 72.8135 25.872C75.5868 27.408 77.7842 29.52 79.4055 32.208C81.0268 34.8533 81.8375 37.8187 81.8375 41.104C81.8375 44.3893 81.0268 47.3547 79.4055 50C77.7842 52.6453 75.5868 54.7573 72.8135 56.336C70.0402 57.872 66.9255 58.64 63.4695 58.64ZM63.4695 49.68C65.0482 49.68 66.4562 49.296 67.6935 48.528C68.9308 47.76 69.9122 46.736 70.6375 45.456C71.3628 44.1333 71.7255 42.6827 71.7255 41.104C71.7255 39.4827 71.3628 38.032 70.6375 36.752C69.9122 35.4293 68.9095 34.384 67.6295 33.616C66.3922 32.848 65.0055 32.464 63.4695 32.464C61.9335 32.464 60.5255 32.848 59.2455 33.616C58.0082 34.384 57.0268 35.4293 56.3015 36.752C55.5762 38.032 55.2135 39.4827 55.2135 41.104C55.2135 42.6827 55.5762 44.1333 56.3015 45.456C57.0268 46.736 58.0082 47.76 59.2455 48.528C60.5255 49.296 61.9335 49.68 63.4695 49.68ZM86.7 71.056V24.144H96.94V26.64C99.628 24.6773 102.657 23.696 106.028 23.696C109.271 23.696 112.193 24.4853 114.796 26.064C117.399 27.6 119.468 29.6907 121.004 32.336C122.54 34.9387 123.308 37.8613 123.308 41.104C123.308 44.3467 122.519 47.2907 120.94 49.936C119.404 52.5387 117.292 54.608 114.604 56.144C111.959 57.68 108.993 58.448 105.708 58.448C104.129 58.448 102.615 58.256 101.164 57.872C99.7133 57.488 98.348 56.9333 97.068 56.208V71.056H86.7ZM104.236 49.68C105.943 49.68 107.457 49.3173 108.78 48.592C110.103 47.824 111.148 46.8 111.916 45.52C112.727 44.1973 113.132 42.7253 113.132 41.104C113.132 39.4827 112.727 38.032 111.916 36.752C111.148 35.4293 110.081 34.4053 108.716 33.68C107.393 32.912 105.9 32.528 104.236 32.528C102.785 32.528 101.463 32.7627 100.268 33.232C99.0733 33.6587 98.0067 34.32 97.068 35.216V47.056C97.964 47.8667 99.0307 48.5067 100.268 48.976C101.505 49.4453 102.828 49.68 104.236 49.68ZM128.2 58V24.144H138.568V58H128.2ZM133.384 21.008C131.805 21.008 130.461 20.4533 129.352 19.344C128.243 18.2347 127.688 16.8907 127.688 15.312C127.688 13.7333 128.243 12.3893 129.352 11.28C130.461 10.1707 131.805 9.616 133.384 9.616C134.963 9.616 136.307 10.1707 137.416 11.28C138.525 12.3893 139.08 13.7333 139.08 15.312C139.08 16.8907 138.525 18.2347 137.416 19.344C136.307 20.4533 134.963 21.008 133.384 21.008ZM144.95 58V13.2L155.318 11.6V58H144.95ZM172.516 58.576C170.127 58.576 167.993 58.128 166.116 57.232C164.281 56.336 162.831 55.0987 161.764 53.52C160.74 51.9413 160.228 50.128 160.228 48.08C160.228 44.8373 161.444 42.3413 163.876 40.592C166.351 38.8 169.785 37.904 174.18 37.904C176.825 37.904 179.385 38.224 181.86 38.864V37.2C181.86 35.4933 181.305 34.2347 180.196 33.424C179.129 32.5707 177.529 32.144 175.396 32.144C174.073 32.144 172.58 32.3573 170.916 32.784C169.295 33.2107 167.375 33.8933 165.156 34.832L161.444 27.216C164.217 25.9787 166.884 25.0613 169.444 24.464C172.047 23.824 174.649 23.504 177.252 23.504C181.945 23.504 185.593 24.6347 188.196 26.896C190.799 29.1147 192.1 32.2507 192.1 36.304V58H181.86V55.952C180.495 56.8907 179.044 57.5733 177.508 58C176.015 58.384 174.351 58.576 172.516 58.576ZM170.084 47.888C170.084 48.9547 170.553 49.7867 171.492 50.384C172.431 50.9813 173.732 51.28 175.396 51.28C176.633 51.28 177.785 51.152 178.852 50.896C179.961 50.64 180.964 50.2347 181.86 49.68V45.328C180.879 45.072 179.876 44.88 178.852 44.752C177.828 44.624 176.783 44.56 175.716 44.56C173.924 44.56 172.537 44.8587 171.556 45.456C170.575 46.0107 170.084 46.8213 170.084 47.888Z" fill="#513AA6"/>
<path d="M0 77H54.5H192.5" stroke="#FC3E59" stroke-width="4"/>
</svg>
